<svg width="20" height="21" viewBox="0 0 20 21" fill="none" xmlns="http://www.w3.org/2000/svg">
<path d="M10 2.13281C8.42393 2.13281 6.88326 2.60017 5.5728 3.47579C4.26235 4.35141 3.24097 5.59596 2.63784 7.05205C2.0347 8.50815 1.87689 10.1104 2.18437 11.6562C2.49185 13.202 3.2508 14.6219 4.36525 15.7363C5.4797 16.8508 6.89959 17.6097 8.44538 17.9172C9.99116 18.2247 11.5934 18.0669 13.0495 17.4637C14.5056 16.8606 15.7502 15.8392 16.6258 14.5288C17.5014 13.2183 17.9688 11.6776 17.9688 10.1016C17.9663 7.98888 17.1259 5.96344 15.632 4.46955C14.1381 2.97565 12.1127 2.13529 10 2.13281ZM17.0164 9.65625C16.7617 9.64141 16.5055 9.63281 16.2508 9.63281C15.0554 9.63334 13.8658 9.7987 12.7156 10.1242C12.4317 9.24521 12.0538 8.39943 11.5883 7.60156C11.5773 7.58203 11.5648 7.56328 11.5539 7.54375C12.7499 6.84155 13.8257 5.95244 14.7406 4.91016C16.0865 6.13683 16.9026 7.8388 17.0164 9.65625ZM14.007 4.32734C13.1557 5.28993 12.1561 6.11041 11.0461 6.75781C10.148 5.4632 9.02279 4.34197 7.725 3.44844C8.76763 3.09167 9.87959 2.98533 10.9709 3.13802C12.0623 3.29071 13.1024 3.69813 14.007 4.32734ZM6.6961 3.89688C8.07756 4.75077 9.27315 5.87382 10.2117 7.19922C8.58545 7.98023 6.8041 8.38478 5 8.38281C4.40279 8.38236 3.80641 8.33823 3.21563 8.25078C3.46991 7.32684 3.90963 6.46433 4.508 5.71581C5.10636 4.96728 5.85084 4.3484 6.6961 3.89688ZM2.96875 10.1016C2.96872 9.79012 2.98934 9.47902 3.03047 9.17031C3.68226 9.26994 4.34065 9.32008 5 9.32031C6.98519 9.32252 8.94428 8.86809 10.7258 7.99219C10.743 8.02109 10.7617 8.04922 10.7781 8.07812C11.2096 8.8169 11.5601 9.60008 11.8234 10.4141C11.1177 10.6693 10.4357 10.9859 9.78516 11.3602C8.03903 12.3675 6.55009 13.7658 5.43516 15.4453C4.66173 14.7862 4.04063 13.9671 3.61479 13.0444C3.18895 12.1218 2.96853 11.1177 2.96875 10.1016ZM6.18672 16.0063C7.22481 14.4278 8.61728 13.1137 10.2531 12.1688C10.8368 11.8331 11.4479 11.5475 12.0797 11.3148C12.3028 12.24 12.4155 13.1882 12.4156 14.1398C12.4156 15.0369 12.3158 15.9312 12.118 16.8063C11.1315 17.1181 10.0882 17.2081 9.06285 17.0698C8.03749 16.9315 7.05537 16.5683 6.18672 16.0063ZM13.1586 16.382C13.288 15.6416 13.3531 14.8915 13.3531 14.1398C13.3526 13.0901 13.2251 12.0442 12.9734 11.025C14.0396 10.7239 15.1421 10.5709 16.25 10.5703C16.5039 10.5703 16.7594 10.5789 17.0133 10.5953C16.9263 11.8109 16.5254 12.9832 15.8497 13.9974C15.1741 15.0117 14.2468 15.8334 13.1586 16.382Z" fill="#04151F"/>
</svg>
