<svg width="20" height="21" viewBox="0 0 20 21" fill="none" xmlns="http://www.w3.org/2000/svg">
<path d="M10 6.50781C9.28922 6.50781 8.59441 6.71858 8.00342 7.11347C7.41243 7.50835 6.95181 8.06962 6.67981 8.72629C6.40781 9.38297 6.33664 10.1055 6.4753 10.8027C6.61397 11.4998 6.95624 12.1401 7.45884 12.6427C7.96143 13.1453 8.60178 13.4876 9.29889 13.6263C9.99601 13.7649 10.7186 13.6938 11.3753 13.4218C12.0319 13.1498 12.5932 12.6891 12.9881 12.0981C13.383 11.5072 13.5938 10.8123 13.5938 10.1016C13.5925 9.14882 13.2135 8.23546 12.5398 7.56177C11.8661 6.88808 10.9527 6.50905 10 6.50781ZM10 12.7578C9.47464 12.7578 8.96108 12.602 8.52427 12.3102C8.08745 12.0183 7.74699 11.6034 7.54595 11.1181C7.3449 10.6327 7.2923 10.0986 7.39479 9.58335C7.49728 9.06809 7.75026 8.59479 8.12175 8.22331C8.49323 7.85183 8.96653 7.59884 9.48179 7.49635C9.99705 7.39386 10.5311 7.44646 11.0165 7.64751C11.5019 7.84855 11.9167 8.18901 12.2086 8.62583C12.5005 9.06265 12.6562 9.57621 12.6562 10.1016C12.6562 10.806 12.3764 11.4817 11.8783 11.9798C11.3801 12.478 10.7045 12.7578 10 12.7578ZM13.75 2.13281H6.25C5.1315 2.13405 4.05916 2.57893 3.26826 3.36983C2.47736 4.16073 2.03249 5.23306 2.03125 6.35156V13.8516C2.03249 14.9701 2.47736 16.0424 3.26826 16.8333C4.05916 17.6242 5.1315 18.0691 6.25 18.0703H13.75C14.8685 18.0691 15.9408 17.6242 16.7317 16.8333C17.5226 16.0424 17.9675 14.9701 17.9688 13.8516V6.35156C17.9675 5.23306 17.5226 4.16073 16.7317 3.36983C15.9408 2.57893 14.8685 2.13405 13.75 2.13281ZM17.0312 13.8516C17.0312 14.7218 16.6855 15.5564 16.0702 16.1718C15.4548 16.7871 14.6202 17.1328 13.75 17.1328H6.25C5.37976 17.1328 4.54516 16.7871 3.92981 16.1718C3.31445 15.5564 2.96875 14.7218 2.96875 13.8516V6.35156C2.96875 5.48132 3.31445 4.64672 3.92981 4.03137C4.54516 3.41601 5.37976 3.07031 6.25 3.07031H13.75C14.6202 3.07031 15.4548 3.41601 16.0702 4.03137C16.6855 4.64672 17.0312 5.48132 17.0312 6.35156V13.8516ZM14.8438 6.03906C14.8438 6.19358 14.7979 6.34463 14.7121 6.4731C14.6262 6.60158 14.5042 6.70171 14.3615 6.76084C14.2187 6.81997 14.0616 6.83545 13.9101 6.8053C13.7585 6.77516 13.6193 6.70075 13.5101 6.59149C13.4008 6.48223 13.3264 6.34302 13.2963 6.19148C13.2661 6.03993 13.2816 5.88285 13.3407 5.74009C13.3998 5.59734 13.5 5.47532 13.6285 5.38948C13.7569 5.30363 13.908 5.25781 14.0625 5.25781C14.2697 5.25781 14.4684 5.34012 14.6149 5.48664C14.7614 5.63315 14.8438 5.83186 14.8438 6.03906Z" fill="#04151F"/>
</svg>
