<svg width="20" height="20" viewBox="0 0 20 20" fill="none" xmlns="http://www.w3.org/2000/svg">
<path d="M5.2625 7.07344C4.9625 7.07344 4.7375 7.29844 4.7375 7.59844V14.9484C4.7375 15.2484 4.9625 15.4734 5.2625 15.4734C5.5625 15.4734 5.7875 15.2484 5.7875 14.9484V7.59844C5.7875 7.29844 5.5625 7.07344 5.2625 7.07344ZM5.8375 5.09844C5.8375 5.41594 5.58 5.67344 5.2625 5.67344C4.945 5.67344 4.6875 5.41594 4.6875 5.09844C4.6875 4.78094 4.945 4.52344 5.2625 4.52344C5.58 4.52344 5.8375 4.78094 5.8375 5.09844ZM14.2375 7.29844C13.1125 6.69844 11.4625 7.12344 9.2125 8.54844V7.59844C9.2125 7.29844 8.9875 7.07344 8.6875 7.07344C8.3875 7.07344 8.1625 7.29844 8.1625 7.59844V14.9484C8.1625 15.2484 8.3875 15.4734 8.6875 15.4734C8.9875 15.4734 9.2125 15.2484 9.2125 14.9484V9.79844C12.0375 7.84844 13.2625 7.97344 13.7375 8.22344C14.3875 8.57344 14.3875 9.52344 14.3875 9.52344V14.9484C14.3875 15.2484 14.6125 15.4734 14.9125 15.4734C15.2125 15.4734 15.4375 15.2484 15.4375 14.9484V9.54844C15.4375 9.47344 15.4375 7.94844 14.2375 7.29844Z" fill="black"/>
</svg>
