<svg width="56" height="40" viewBox="0 0 56 40" fill="none" xmlns="http://www.w3.org/2000/svg">
<path d="M19.03 0C27.6313 0 36.2326 0 45.0946 0C45.0946 3.87592 45.0946 7.75184 45.0946 11.7452C48.6934 11.7452 52.2922 11.7452 56 11.7452C56 14.745 55.6517 17.5254 54.7625 20.3791C54.7396 20.4528 54.7167 20.5265 54.6931 20.6024C53.6259 23.9759 51.8797 27.0917 49.6234 29.8015C49.5122 29.9355 49.4026 30.0707 49.2932 30.2062C48.8014 30.8076 48.265 31.3634 47.7194 31.9153C47.6139 32.0225 47.6139 32.0225 47.5062 32.132C47.0353 32.6033 46.5416 33.03 46.0227 33.4466C45.9433 33.5138 45.8641 33.5814 45.7856 33.6496C44.6362 34.6409 43.3803 35.4738 42.0782 36.2468C42.0159 36.2839 41.9535 36.321 41.8893 36.3592C40.2411 37.3288 38.4828 38.0787 36.6642 38.6581C36.5912 38.6816 36.5183 38.7051 36.4431 38.7294C33.72 39.5978 30.9307 39.9979 28.0791 39.9998C28.0079 39.9999 27.9368 39.9999 27.8634 40C23.5092 39.9949 19.2987 38.9584 15.3949 37.0246C15.3326 36.9939 15.2704 36.9631 15.2063 36.9314C12.9846 35.8207 10.9297 34.346 9.11919 32.6433C8.96976 32.5029 8.81985 32.3644 8.66721 32.2276C8.08782 31.707 7.55721 31.1532 7.0418 30.5687C7.00351 30.5254 6.96523 30.4822 6.92578 30.4377C2.95727 25.9374 0.580498 20.1586 0.056746 14.1808C0.0478758 14.0807 0.0478758 14.0807 0.0388264 13.9787C-0.0165763 13.2321 0.00357263 12.4985 0.00357263 11.7452C3.62787 11.7452 7.25217 11.7452 10.9863 11.7452C11.0629 12.5666 11.1394 13.388 11.2183 14.2343C11.6526 16.8674 12.5347 19.3593 14.08 21.5459C14.1378 21.6283 14.1957 21.7107 14.2553 21.7956C15.1789 23.0687 16.2397 24.2393 17.4831 25.2016C17.5248 25.2344 17.5665 25.2671 17.6095 25.3009C21.1199 28.044 25.6499 29.2823 30.061 28.7699C33.1079 28.3767 36.0362 27.2103 38.4431 25.2794C38.5485 25.1958 38.5485 25.1958 38.6561 25.1105C39.4148 24.4983 40.1421 23.8563 40.7634 23.1015C40.8183 23.0393 40.8733 22.9772 40.9299 22.9131C43.6518 19.7719 44.8033 15.9123 45.0173 11.823C36.4415 11.823 27.8657 11.823 19.03 11.823C19.03 7.92141 19.03 4.01982 19.03 0Z" fill="#04151F"/>
</svg>
