<svg width="720" height="159" viewBox="0 0 720 159" fill="none" xmlns="http://www.w3.org/2000/svg">
<path d="M71.5433 0C103.88 0 136.217 0 169.533 0C169.533 15.3985 169.533 30.7969 169.533 46.662C183.063 46.662 196.593 46.662 210.532 46.662C210.532 58.5798 209.223 69.6259 205.88 80.9632C205.794 81.2559 205.708 81.5486 205.619 81.8502C201.607 95.2528 195.042 107.631 186.559 118.397C186.141 118.929 185.729 119.466 185.318 120.005C183.469 122.394 181.452 124.602 179.401 126.795C179.005 127.221 179.005 127.221 178.6 127.656C176.829 129.528 174.973 131.223 173.023 132.879C172.724 133.145 172.426 133.414 172.131 133.685C167.81 137.623 163.088 140.932 158.193 144.003C157.959 144.151 157.724 144.298 157.483 144.45C151.287 148.302 144.676 151.281 137.839 153.583C137.565 153.676 137.291 153.77 137.008 153.866C126.771 157.316 116.284 158.906 105.564 158.914C105.296 158.914 105.028 158.914 104.753 158.914C88.3829 158.894 72.5534 154.776 57.877 147.094C57.643 146.971 57.409 146.849 57.168 146.723C48.8157 142.31 41.0902 136.451 34.2836 129.687C33.7218 129.129 33.1583 128.579 32.5844 128.036C30.4062 125.967 28.4114 123.767 26.4737 121.445C26.3297 121.273 26.1858 121.101 26.0375 120.925C11.1179 103.045 2.18238 80.0872 0.213337 56.3382C0.179989 55.9407 0.179989 55.9407 0.145968 55.5352C-0.0623188 52.5692 0.0134313 49.6546 0.0134313 46.662C13.639 46.662 27.2646 46.662 41.303 46.662C41.5909 49.9253 41.8787 53.1885 42.1753 56.5507C43.8079 67.0119 47.1244 76.9118 52.9339 85.5985C53.1513 85.926 53.3687 86.2534 53.5927 86.5908C57.0653 91.6487 61.0531 96.2993 65.7278 100.122C65.8847 100.253 66.0415 100.383 66.203 100.517C79.4003 111.415 96.4308 116.334 113.015 114.299C124.469 112.737 135.478 108.103 144.527 100.431C144.923 100.099 144.923 100.099 145.328 99.7603C148.18 97.3284 150.914 94.7777 153.25 91.7789C153.457 91.532 153.663 91.285 153.876 91.0305C164.109 78.551 168.438 63.2173 169.243 46.971C137.002 46.971 104.761 46.971 71.5433 46.971C71.5433 31.4706 71.5433 15.9702 71.5433 0Z" fill="#FBF9E1"/>
<path d="M297.473 17.9219C307.069 17.9219 316.664 17.9219 326.55 17.9219C326.55 63.6074 326.55 109.293 326.55 156.363C316.955 156.363 307.359 156.363 297.473 156.363C297.377 151.876 297.281 147.389 297.182 142.766C296.319 143.888 295.455 145.009 294.566 146.165C287.341 154.765 276.015 157.695 265.602 158.429C252.124 159.216 238.277 157.18 227.662 147.593C219.558 139.836 214.743 130.086 212.859 118.662C212.815 118.404 212.772 118.145 212.727 117.879C211.495 110.203 211.223 101.572 212.859 93.9408C212.91 93.6948 212.962 93.4488 213.015 93.1954C215.894 79.7809 223.516 68.5964 234.376 61.1847C242.597 55.7361 252.094 53.9421 261.636 53.9806C261.924 53.9812 262.212 53.9818 262.509 53.9823C274.499 54.0217 286.696 55.6967 295.638 65.0281C296.245 65.6897 296.696 66.2805 297.182 67.056C297.278 50.8418 297.374 34.6275 297.473 17.9219ZM242.816 90.7263C238.505 96.1559 237.402 103.108 237.865 110.01C238.415 115.559 240.743 120.895 244.703 124.6C253.059 131.697 264.494 132.099 274.689 130.927C281.54 130.045 288.284 127.905 293.112 122.371C296.914 117.113 297.725 110.632 297.036 104.199C296.263 97.9458 294.224 92.8664 289.622 88.6874C277.773 79.4268 253.321 78.9157 242.816 90.7263Z" fill="#FBF9E1"/>
<path d="M663.063 54.0006C663.351 54.0004 663.639 54.0002 663.936 54C681.019 54.0195 699.22 57.222 712.004 70.2242C716.952 75.6173 720.023 82.7229 719.999 90.2912C719.999 90.7156 719.999 90.7156 720 91.1487C720 92.0953 719.998 93.0418 719.997 93.9884C719.997 94.6676 719.997 95.3468 719.997 96.026C719.997 97.8691 719.995 99.7122 719.993 101.555C719.991 103.482 719.991 105.408 719.991 107.335C719.99 110.568 719.988 113.801 719.986 117.034C719.983 120.364 719.981 123.693 719.98 127.023C719.98 127.231 719.98 127.438 719.98 127.652C719.979 129.456 719.978 131.261 719.978 133.065C719.975 140.831 719.969 148.597 719.964 156.363C710.368 156.363 700.773 156.363 690.887 156.363C690.791 152.59 690.695 148.817 690.596 144.93C690.02 145.644 689.444 146.357 688.851 147.093C677.065 158.289 657.335 159.555 642.328 158.836C630.973 158.092 620.165 154.23 611.797 145.857C611.529 145.602 611.529 145.602 611.255 145.341C606.62 140.755 603.982 133.921 603.656 127.291C603.649 119.264 605.731 112.008 611.042 106.168C617.934 98.9718 627.837 96.3663 637.076 94.7913C637.345 94.7446 637.614 94.6979 637.891 94.6497C644.385 93.6242 650.93 93.5429 657.479 93.5698C658.608 93.5737 659.737 93.574 660.866 93.5747C662.99 93.5766 665.114 93.5817 667.239 93.5879C669.663 93.5949 672.087 93.5983 674.511 93.6013C679.485 93.6077 684.459 93.6186 689.433 93.6324C689.251 92.8362 689.067 92.0404 688.883 91.2448C688.832 91.0203 688.781 90.7958 688.728 90.5645C687.743 86.3293 685.304 83.0572 681.873 80.6536C672.791 74.9233 661.577 74.4295 651.464 76.955C646.679 78.265 641.83 80.67 638.839 84.9799C638.263 86.2036 637.687 87.4273 637.094 88.6881C627.978 88.6881 618.862 88.6881 609.471 88.6881C610.11 81.2148 613.398 75.5425 618.194 70.1469C618.39 69.9187 618.586 69.6904 618.788 69.4553C629.811 57.0803 647.823 54.0106 663.063 54.0006ZM635.931 118.045C633.797 120.477 633.131 122.667 633.216 125.966C633.478 128.754 635.108 130.531 637.094 132.26C646.67 139.351 660.053 138.388 670.987 136.335C677.517 135.014 684.161 132.594 688.27 126.698C690.338 123.196 690.95 119.641 690.907 115.584C690.906 115.314 690.904 115.044 690.903 114.767C690.899 114.108 690.893 113.45 690.887 112.792C685.897 112.777 680.907 112.766 675.917 112.76C673.6 112.756 671.282 112.752 668.965 112.745C666.943 112.739 664.92 112.735 662.898 112.734C661.83 112.733 660.761 112.731 659.692 112.726C647.097 112.518 647.097 112.518 635.931 118.045Z" fill="#FBF9E1"/>
<path d="M428.901 55.314C429.23 55.3983 429.23 55.3983 429.565 55.4844C432.9 56.3613 435.991 57.7445 439.078 59.3313C439.42 59.5065 439.762 59.6818 440.115 59.8624C444.576 62.2812 449.642 66.1289 451.29 71.383C451.386 66.3862 451.482 61.3893 451.581 56.2411C461.273 56.2411 470.964 56.2411 480.949 56.2411C480.961 67.9254 480.961 67.9254 480.964 72.3856C480.964 72.6599 480.964 72.9342 480.964 73.2169C480.966 75.2644 480.966 77.312 480.967 79.3596C480.967 79.6495 480.968 79.9393 480.968 80.238C480.976 98.7187 480.926 117.198 480.804 135.679C480.802 135.942 480.8 136.206 480.798 136.478C480.786 138.311 480.774 140.145 480.762 141.978C480.76 142.207 480.759 142.436 480.757 142.672C480.726 147.236 480.692 151.8 480.658 156.364C471.063 156.364 461.467 156.364 451.581 156.364C451.574 152.562 451.566 148.76 451.558 144.843C451.551 142.429 451.544 140.015 451.535 137.601C451.521 133.773 451.508 129.945 451.502 126.117C451.499 123.328 451.491 120.54 451.478 117.751C451.472 116.276 451.467 114.801 451.467 113.326C451.467 111.934 451.462 110.543 451.453 109.151C451.45 108.643 451.45 108.136 451.452 107.629C451.469 101.587 450.254 96.4128 446.22 91.8942C439.671 85.4436 431.189 84.118 422.593 84.3198C416.424 84.5898 410.287 86.781 405.639 91.1603C405.367 91.4065 405.367 91.4065 405.088 91.6576C402.333 94.3286 400.885 97.9529 399.824 101.667C399.771 101.845 399.719 102.023 399.665 102.207C399.482 103.171 399.492 104.098 399.487 105.081C399.486 105.301 399.484 105.52 399.483 105.746C399.478 106.481 399.476 107.216 399.473 107.951C399.471 108.478 399.468 109.005 399.465 109.532C399.457 110.962 399.451 112.393 399.445 113.824C399.439 115.319 399.431 116.814 399.423 118.309C399.408 121.14 399.395 123.971 399.383 126.802C399.366 130.628 399.346 134.454 399.327 138.28C399.297 144.308 399.27 150.336 399.242 156.364C389.647 156.364 380.051 156.364 370.165 156.364C370.13 141.759 370.13 141.759 370.123 135.605C370.117 131.368 370.111 127.131 370.099 122.894C370.091 119.807 370.085 116.72 370.083 113.634C370.082 112.002 370.079 110.37 370.073 108.739C370.023 95.649 370.023 95.6489 371.037 90.2333C371.106 89.8629 371.175 89.4926 371.246 89.111C371.413 88.2714 371.605 87.4488 371.819 86.6216C371.893 86.33 371.967 86.0384 372.043 85.7379C374.728 75.5936 380.578 67.0042 389.065 61.4944C389.25 61.3723 389.436 61.2501 389.626 61.1243C395.142 57.555 401.614 55.6629 407.965 54.696C408.288 54.643 408.288 54.643 408.617 54.589C415.295 53.5201 422.342 53.5778 428.901 55.314Z" fill="#FBF9E1"/>
<path d="M583.887 64.4253C584.173 64.6823 584.46 64.9392 584.755 65.2039C585.166 65.5654 585.166 65.5654 585.586 65.9342C594.085 73.7289 597.901 85.622 598.797 97.2118C598.996 100.375 599.042 103.52 599.036 106.689C599.035 107.235 599.036 107.781 599.036 108.326C599.036 109.791 599.034 111.256 599.032 112.721C599.03 114.258 599.03 115.795 599.03 117.332C599.029 120.236 599.026 123.139 599.023 126.042C599.02 129.971 599.018 133.899 599.016 137.828C599.014 144.007 599.008 150.186 599.003 156.365C589.407 156.365 579.812 156.365 569.925 156.365C569.914 152.693 569.904 149.022 569.892 145.239C569.884 142.908 569.875 140.577 569.865 138.247C569.849 134.55 569.834 130.853 569.825 127.157C569.818 124.464 569.808 121.771 569.795 119.078C569.788 117.654 569.782 116.23 569.781 114.806C569.779 113.462 569.773 112.118 569.764 110.774C569.762 110.284 569.761 109.794 569.761 109.304C569.764 105.249 569.531 101.146 567.654 97.5158C567.552 97.31 567.451 97.1041 567.347 96.892C566.683 95.5727 565.954 94.3447 565.048 93.1944C564.691 92.7067 564.691 92.7067 564.426 92.0645C564.029 91.3175 563.674 91.1989 562.947 90.8526C562.566 90.5315 562.191 90.2023 561.82 89.8676C555.246 84.3947 545.966 83.5121 537.942 84.5177C531.817 85.4752 526.541 88.0207 522.239 92.7067C522.063 92.8867 521.888 93.0668 521.707 93.2523C519.258 95.9644 517.847 100.028 517.701 103.723C517.69 103.969 517.68 104.216 517.668 104.47C517.499 108.892 517.518 113.323 517.498 117.748C517.492 119.109 517.484 120.47 517.476 121.832C517.462 124.4 517.449 126.969 517.436 129.537C517.419 133.014 517.4 136.492 517.381 139.969C517.351 145.435 517.323 150.9 517.296 156.365C507.7 156.365 498.105 156.365 488.219 156.365C488.123 123.324 488.027 90.284 487.928 56.2423C497.715 56.2423 507.502 56.2423 517.586 56.2423C517.682 61.0352 517.778 65.8281 517.877 70.7663C518.453 69.7465 519.029 68.7267 519.622 67.6761C525.022 60.0503 534.892 56.1192 543.432 54.5234C543.88 54.4565 543.88 54.4565 544.337 54.3882C544.676 54.3324 545.014 54.2767 545.363 54.2192C558.205 52.5719 573.706 55.5372 583.887 64.4253Z" fill="#FBF9E1"/>
<path d="M333.818 56.2422C343.414 56.2422 353.009 56.2422 362.896 56.2422C362.896 89.2826 362.896 122.323 362.896 156.365C353.3 156.365 343.705 156.365 333.818 156.365C333.818 123.324 333.818 90.2838 333.818 56.2422Z" fill="#FBF9E1"/>
<path d="M359.68 4.35815C363.73 7.75525 366.894 12.3813 367.632 17.9265C368.258 23.7516 367.237 29.5981 363.769 34.3005C360.486 38.3601 356.394 41.3771 351.266 42.026C345.237 42.3759 340.044 41.3917 335.342 37.1046C331.256 33.0732 328.968 27.9328 328.74 22.011C328.669 16.4651 330.422 11.1571 334.057 7.12439C340.955 -0.223338 351.572 -1.8179 359.68 4.35815Z" fill="#FBF9E1"/>
</svg>
