<svg width="20" height="21" viewBox="0 0 20 21" fill="none" xmlns="http://www.w3.org/2000/svg">
<path d="M16.6451 16.7248L11.6904 8.93888L16.5967 3.53888C16.6444 3.4946 16.6823 3.44088 16.7081 3.38113C16.7339 3.32138 16.747 3.25691 16.7465 3.19183C16.746 3.12675 16.732 3.06248 16.7053 3.00312C16.6786 2.94376 16.6399 2.89061 16.5915 2.84705C16.5432 2.80349 16.4863 2.77047 16.4245 2.75011C16.3626 2.72974 16.2973 2.72247 16.2325 2.72875C16.1677 2.73504 16.105 2.75475 16.0482 2.78662C15.9915 2.81849 15.942 2.86183 15.9029 2.91388L11.1717 8.11856L7.89822 2.97481C7.85563 2.90784 7.79673 2.85278 7.72704 2.81479C7.65735 2.7768 7.57915 2.75713 7.49978 2.75763H3.74978C3.66581 2.75766 3.5834 2.78026 3.51115 2.82304C3.4389 2.86583 3.37947 2.92724 3.33907 3.00085C3.29867 3.07446 3.27878 3.15758 3.28149 3.2415C3.2842 3.32543 3.30941 3.40709 3.35447 3.47794L8.30916 11.2639L3.40291 16.6639C3.33261 16.7575 3.2999 16.8741 3.31121 16.9906C3.32252 17.1071 3.37703 17.2152 3.46402 17.2936C3.55101 17.3719 3.66417 17.4149 3.78125 17.414C3.89833 17.4132 4.01085 17.3685 4.09666 17.2889L8.82791 12.0842L12.1013 17.2279C12.1439 17.2949 12.2028 17.35 12.2725 17.388C12.3422 17.4259 12.4204 17.4456 12.4998 17.4451H16.2498C16.3338 17.4451 16.4162 17.4225 16.4884 17.3797C16.5607 17.3369 16.6201 17.2755 16.6605 17.2019C16.7009 17.1283 16.7208 17.0452 16.7181 16.9612C16.7154 16.8773 16.6902 16.7957 16.6451 16.7248ZM12.7568 16.5076L4.60369 3.69513H7.24275L15.3959 16.5076H12.7568Z" fill="#04151F"/>
</svg>
